<svg width="272" height="272" viewBox="0 0 272 272" fill="none" xmlns="http://www.w3.org/2000/svg">
<g opacity="0.6" filter="url(#filter0_dddd_54_3)">
<rect x="80" y="16" width="112" height="112" rx="32" fill="white"/>
</g>
<mask id="mask0_54_3" style="mask-type:alpha" maskUnits="userSpaceOnUse" x="72" y="0" width="128" height="128">
<rect x="72" width="128" height="128" rx="32" fill="white"/>
</mask>
<g mask="url(#mask0_54_3)">
<rect x="72" width="128" height="128" fill="white"/>
<rect x="72" width="128" height="128" rx="32" fill="white"/>
<rect x="224.184" y="9.5" width="10" height="174.641" transform="rotate(45 224.184 9.5)" fill="#F45E6D"/>
<path fill-rule="evenodd" clip-rule="evenodd" d="M121.526 78.2447C126.066 82.7817 133.425 82.7812 137.965 78.2434L207.844 8.3982C209.71 6.53393 212.735 6.53393 214.601 8.3982C216.466 10.2625 216.466 13.2851 214.601 15.1493L133.107 96.6018C131.241 98.4661 128.216 98.4661 126.351 96.6018C126.236 96.4868 126.128 96.3675 126.027 96.2443L107.399 77.6318C105.534 75.7675 105.534 72.7449 107.399 70.8807C109.265 69.0164 112.29 69.0164 114.156 70.8807L121.526 78.2447Z" fill="#006CFF"/>
<rect x="205.184" y="46.5" width="10" height="164.726" transform="rotate(45 205.184 46.5)" fill="#61DEA4"/>
</g>
<defs>
<filter id="filter0_dddd_54_3" x="0" y="0" width="272" height="272" filterUnits="userSpaceOnUse" color-interpolation-filters="sRGB">
<feFlood flood-opacity="0" result="BackgroundImageFix"/>
<feColorMatrix in="SourceAlpha" type="matrix" values="0 0 0 0 0 0 0 0 0 0 0 0 0 0 0 0 0 0 127 0" result="hardAlpha"/>
<feOffset dy="32"/>
<feGaussianBlur stdDeviation="8"/>
<feColorMatrix type="matrix" values="0 0 0 0 0.137255 0 0 0 0 0.164706 0 0 0 0 0.2 0 0 0 0.08 0"/>
<feBlend mode="normal" in2="BackgroundImageFix" result="effect1_dropShadow_54_3"/>
<feColorMatrix in="SourceAlpha" type="matrix" values="0 0 0 0 0 0 0 0 0 0 0 0 0 0 0 0 0 0 127 0" result="hardAlpha"/>
<feOffset dy="40"/>
<feGaussianBlur stdDeviation="16"/>
<feColorMatrix type="matrix" values="0 0 0 0 0.138594 0 0 0 0 0.164544 0 0 0 0 0.200873 0 0 0 0.08 0"/>
<feBlend mode="normal" in2="effect1_dropShadow_54_3" result="effect2_dropShadow_54_3"/>
<feColorMatrix in="SourceAlpha" type="matrix" values="0 0 0 0 0 0 0 0 0 0 0 0 0 0 0 0 0 0 127 0" result="hardAlpha"/>
<feOffset dy="56"/>
<feGaussianBlur stdDeviation="20"/>
<feColorMatrix type="matrix" values="0 0 0 0 0.137255 0 0 0 0 0.164706 0 0 0 0 0.2 0 0 0 0.08 0"/>
<feBlend mode="normal" in2="effect2_dropShadow_54_3" result="effect3_dropShadow_54_3"/>
<feColorMatrix in="SourceAlpha" type="matrix" values="0 0 0 0 0 0 0 0 0 0 0 0 0 0 0 0 0 0 127 0" result="hardAlpha"/>
<feOffset dy="64"/>
<feGaussianBlur stdDeviation="40"/>
<feColorMatrix type="matrix" values="0 0 0 0 0.137255 0 0 0 0 0.164706 0 0 0 0 0.2 0 0 0 0.24 0"/>
<feBlend mode="normal" in2="effect3_dropShadow_54_3" result="effect4_dropShadow_54_3"/>
<feBlend mode="normal" in="SourceGraphic" in2="effect4_dropShadow_54_3" result="shape"/>
</filter>
</defs>
</svg>
